<svg width="42" height="42" viewBox="0 0 42 42" fill="none" xmlns="http://www.w3.org/2000/svg">
    <g clip-path="url(#clip0_3_12)">
        <path d="M41.6162 33.7414L28.8748 21L41.6162 8.2586C41.754 8.1208 41.8524 7.96068 41.9167 7.79005C42.0913 7.32282 41.9915 6.77815 41.6162 6.40278L35.5972 0.383824C35.2219 0.00845897 34.6759 -0.0899758 34.2099 0.0832694C34.0393 0.146268 33.8792 0.246015 33.7414 0.382511L21 13.1239L8.2586 0.382511C8.1208 0.246015 7.96068 0.146268 7.79005 0.0832694C7.32282 -0.0912883 6.77815 0.00845897 6.40278 0.383824L0.383824 6.40278C0.00845897 6.77815 -0.0899758 7.32413 0.0832694 7.79005C0.14758 7.96068 0.246015 8.1208 0.383824 8.2586L13.1252 21L0.383824 33.7414C0.247327 33.8792 0.14758 34.0393 0.0832694 34.2099C-0.0912883 34.6759 0.00845897 35.2219 0.383824 35.5972L6.40278 41.6162C6.77815 41.9915 7.32413 42.09 7.79005 41.9167C7.96068 41.8524 8.1208 41.754 8.2586 41.6162L21 28.8748L33.7414 41.6162C33.8792 41.754 34.0393 41.8524 34.2099 41.9167C34.6772 42.0913 35.2219 41.9915 35.5972 41.6162L41.6162 35.5972C41.9915 35.2219 42.0913 34.6759 41.9167 34.2099C41.8524 34.0393 41.754 33.8792 41.6162 33.7414V33.7414Z"
              fill="#DFDEE2"/>
    </g>
    <defs>
        <clipPath id="clip0_3_12">
            <rect width="42" height="42" fill="white"/>
        </clipPath>
    </defs>
</svg>
